<svg xmlns="http://www.w3.org/2000/svg" version="1.1" xmlns:xlink="http://www.w3.org/1999/xlink" xmlns:svgjs="http://svgjs.dev/svgjs" width="100%" height="100%" viewBox="0 0 1000 600"><rect width="1000" height="600" x="0" y="0" fill="#00539CFF"/><g><circle r="166.66666666666666" cx="335.9421946207682" cy="358.16439147949734" fill="#f7f7f9" transform="matrix(0.7384410346829464,0,0,0.7384410346829464,0,35.51668230735034)"/><path d="M323.99847754371484 302.5617234589828L283.46764586816215 302.5617234589828L266.2255786265681 283.16439781218946L388.41675654355925 283.16439781218946L405.65882378515323 302.5617234589828L353.7230830487546 302.5617234589828L354.1720952165044 433.1643959851543L323.99847754371484 426.9081597811731L323.99847754371484 302.5617234589828Z " fill="#00539CFF" transform="matrix(0.7384410346829464,0,0,0.7384410346829464,0,35.51668230735034)"/><path d="M640.2777868559672 310.13511858817856L602.1584166132413 310.13511858817856L585.9422000254938 291.89187492696266L700.8633738296348 291.89187492696266L717.0795904173824 310.13511858817856L668.2338685775527 310.13511858817856L668.6561658845253 432.9673286096062L640.2777868559672 427.08331946578807L640.2777868559672 310.13511858817856ZM730.0581943183399 330.1801640924775L755.3960327366954 335.86710115970845L755.3960327366954 350.87273213413454Q770.2045916345344 327.5619207892475 780.5367990784637 327.5619207892475L780.5367990784637 327.5619207892475Q785.6043667621348 327.5619207892475 797.5694571263582 332.71394793431307Q809.5345474905816 337.8941282331769 817.6426557844554 343.3558400700224L817.6426557844554 343.3558400700224L803.6505383467636 363.62611080470674Q791.0660785989803 354.3074168975116 781.8599973069779 353.40651597597Q772.6257628611772 352.4774619006304 767.1640510243317 357.03827281593436Q761.6741860336879 361.5990837312383 755.3960327366954 371.73421909858047L755.3960327366954 371.73421909858047L755.3960327366954 432.9673286096062L730.0581943183399 427.2803915423753L730.0581943183399 330.1801640924775ZM838.7012148254885 355.9402998178056L838.5041427489014 355.9402998178056L827.5525659214122 337.49998408000243Q841.7417554356912 333.84007408624 859.0840981753656 330.60246139945014Q876.4264409150401 327.36484871266026 880.8746392151513 327.5619207892475Q885.3228375152626 327.7589928658347 898.7237387231928 340.82205622818685Q912.0964867773248 353.9132727443372 916.7417571540234 360.8107954248895L916.7417571540234 360.8107954248895Q918.3746400743173 363.23196665153233 918.3746400743173 377.1114714740315Q918.3746400743173 390.9909762965306 917.8678833059503 408.8400758045721Q917.3611265375832 426.68917531261366 917.5581986141704 432.9673286096062L917.5581986141704 432.9673286096062L892.417432272402 427.08331946578807L892.6426575027874 416.75111202185866Q876.2012156846547 433.16440068619335 865.8690082407252 433.16440068619335L865.8690082407252 433.16440068619335Q856.1561701803557 432.9673286096062 841.1505392059296 414.72408494839027Q826.1449082315035 396.4808412871743 826.1449082315035 388.56980506988776L826.1449082315035 388.56980506988776Q826.1449082315035 382.2916517728953 834.6471606785517 377.027012012637Q843.177566279398 371.73421909858047 855.4241881816031 368.8062911035705Q867.6989632376064 365.87836310856056 877.2147292213888 364.2454801882665Q886.7586483589694 362.61259726797255 893.4309458091363 362.0213810382109L893.4309458091363 362.0213810382109L893.6561710395217 356.5315160475672Q893.8532431161091 346.81867798719765 883.2958104417942 346.0022365270506L883.2958104417942 346.0022365270506Q873.5829723814245 345.38286714349084 842.361124819251 354.7297142044842L842.361124819251 354.7297142044842L842.1640527426639 354.7297142044842L841.9669806660766 354.9267862810714L841.7417554356912 354.9267862810714L841.544683359104 354.9267862810714L841.3476112825167 355.1238583576586L841.1505392059296 355.1238583576586L840.9534671293425 355.1238583576586L840.7282418989571 355.3209304342458L840.5311698223697 355.3209304342458L840.3340977457826 355.3209304342458L840.1370256691953 355.518002510833L839.9399535926082 355.518002510833L839.7147283622228 355.518002510833L839.5176562856354 355.518002510833L839.3205842090483 355.7432277412184L839.1235121324612 355.7432277412184L838.9264400558739 355.7432277412184L838.7012148254885 355.9402998178056ZM848.6392781162435 406.8130487311037L848.6392781162435 406.8130487311037Q850.4692331131248 409.6565172647192 855.5368007967959 410.47295872486615Q860.604368480467 411.26124703121496 870.852116463002 407.7139496526452Q881.0717112917384 404.1666522740755 893.0368016559619 395.2702556738529L893.0368016559619 395.2702556738529L893.2338737325492 377.4211561658114Q839.7147283622228 393.01800336999906 848.6392781162435 406.8130487311037ZM931.3532439752751 330.1801640924775L956.6910823936305 335.86710115970845L982.6201370417475 398.90201251381717L1009.3937863038097 330.1801640924775L1034.7316247221652 335.86710115970845L997.0345517864121 432.9673286096062L996.8093265560265 432.9673286096062L971.6967133680566 427.2803915423753L971.471488137671 427.2803915423753L931.3532439752751 330.1801640924775ZM1068.1775714343944 386.73985007300655L1068.1775714343944 386.73985007300655L1114.1798247406086 355.3209304342458Q1099.5964910731552 346.0022365270506 1089.3487430906202 348.4234077536935Q1079.1291482618835 350.87273213413454 1073.63928327124 361.0923269628712Q1068.1775714343944 371.34007494540606 1068.1775714343944 386.73985007300655ZM1088.644914245666 394.6508862902931L1072.822841811093 406.19367934754393Q1078.509778878324 413.09120202809623 1085.6043736354634 414.72408494839027Q1092.6989683926029 416.3288147148861 1100.4973919946967 412.7815173363163Q1108.2958155967906 409.2342199577466 1113.588608510847 405.68692257917684Q1118.8532482711053 402.13962520060704 1125.9478430282447 396.2837692105871L1125.9478430282447 396.2837692105871L1130.0018971751817 400.337823357524Q1133.8588792455314 404.5889495810481 1137.6877081620828 408.8400758045721L1137.6877081620828 408.8400758045721L1141.7417623090198 412.894129951509Q1124.1178880313637 425.87273385246664 1111.955725590553 430.23647269118345Q1099.7935631497423 434.572058376102 1087.8284727855191 430.12386007599076L1087.8284727855191 430.12386007599076Q1070.4016705844501 423.42340947202564 1055.0018954568498 406.6159766545165L1055.0018954568498 406.6159766545165Q1045.8802736262417 396.4808412871743 1044.4444627825349 382.60133646467517Q1043.0368050926263 368.6936784883778 1047.9917601611046 356.7567412779526Q1052.9748683833811 344.7916509137292 1063.4196884425032 336.37385792807555Q1073.8363553478273 327.9560649424219 1086.223743019023 327.9560649424219L1086.223743019023 327.9560649424219Q1094.331851312897 327.9560649424219 1110.2383832088644 338.400885001544Q1126.144915104832 348.8457050606661 1136.6741946253487 358.78376835142103L1136.6741946253487 358.78376835142103Q1136.4771225487614 359.3749845811827 1120.570590652794 371.22746233021337Q1104.6640587568263 383.10809323304227 1088.644914245666 394.6508862902931L1088.644914245666 394.6508862902931ZM1159.5908618170613 283.1643972495291L1184.9287002354167 288.85133431676L1184.9287002354167 432.9673286096062L1159.5908618170613 427.2803915423753L1159.5908618170613 283.1643972495291Z " fill="#f7f7f9" transform="matrix(0.7384410346829464,0,0,0.7384410346829464,0,35.51668230735034)"/></g></svg>